<svg xmlns="http://www.w3.org/2000/svg" xmlns:xlink="http://www.w3.org/1999/xlink" width="57" height="68" viewBox="0 0 57 68">
  <defs>
    <filter id="a" width="146.8%" height="138.6%" x="-23.4%" y="-12.3%" filterUnits="objectBoundingBox">
      <feOffset dy="4" in="SourceAlpha" result="shadowOffsetOuter1"/>
      <feGaussianBlur in="shadowOffsetOuter1" result="shadowBlurOuter1" stdDeviation="3"/>
      <feColorMatrix in="shadowBlurOuter1" result="shadowMatrixOuter1" values="0 0 0 0 0 0 0 0 0 0 0 0 0 0 0 0 0 0 0.1 0"/>
      <feMerge>
        <feMergeNode in="shadowMatrixOuter1"/>
        <feMergeNode in="SourceGraphic"/>
      </feMerge>
    </filter>
    <path id="b" d="M8,24.1655114 C3.3199399,22.3589676 0,17.8171906 0,12.5 C0,5.59644063 5.59644063,0 12.5,0 C19.4035594,0 25,5.59644063 25,12.5 C25,17.8171906 21.6800601,22.3589676 17,24.1655114 L17,27 L8,27 L8,24.1655114 Z"/>
    <rect id="c" width="9" height="1" x="8" y="28"/>
    <rect id="d" width="1" height="2" x="12" y="28"/>
  </defs>
  <g fill="none" fill-rule="evenodd" filter="url(#a)" transform="translate(5 2)">
    <g transform="matrix(-1 0 0 1 27 20)">
      <path fill="#D8C6FB" d="M5.59078753,4 L1.64857563,11.0871713 L1.72708148,15.636947 L1,17.3668422 L1.18475946,28.9882396 L6.91343064,31.056987 C6.91343064,31.056987 6.898316,26.5339912 6.24455176,32.4475982 C5.59078753,38.3612051 10.9896439,35.3837389 15.3040818,34.1550087 C19.6185197,32.9262785 19.0466452,26.9613898 19.0466452,26.9613898 L19.0967265,23.007035 L19.6185197,21.5410514 C19.6185197,21.5410514 22.2608732,21.1728277 23.480421,19.6172178 C24.6999688,18.0616079 23.6238972,14.3424411 21.7950267,14.3424411 C19.9661563,14.3424411 20.4135042,17.4329281 20.4135042,17.4329281 L18.5404178,17.9855875 L18.6457691,6.90907477 L5.59078753,4 Z"/>
      <path fill="#4E2BA9" d="M9.04966953,0.000641907348 C6.35387011,0.0513151851 4.43984542,3.35563306 5.14851117,4.64892406 C5.85717693,5.94221507 13.3681015,7.25162185 15.6579777,7.25162185 C17.9478539,7.25162185 15.0969802,9.08230459 15.9957202,10.3830294 C16.8944602,11.6837542 20.7677057,11.1770765 22.2877751,13.3810825 C23.8078446,15.5850884 23.4350469,18 23.4350469,18 L26,11.9770055 C26,11.9770055 22.9196059,5.78427817 21.1431287,4.34827124 C19.3666514,2.91226432 11.745469,-0.0500313704 9.04966953,0.000641907348 Z"/>
      <path fill="#7543EE" d="M16,11 C16,11 17.5110938,15.3341479 17.5110938,17.7755663 C17.5110938,20.2169847 19.7184333,18.3166033 19.7184333,18.3166033 C19.7184333,18.3166033 19.4386289,15.0159931 20.9439744,15.0159931 C21.3887791,15.0159931 22.4095222,15.0420711 23.0483669,16.6810279 C23.6872116,18.3199847 23.1997184,20 23.1997184,20 C23.1997184,20 23.7909639,19.4914701 23.9398091,18.8615413 C24.0886544,18.2316124 23.9161785,17.7293026 23.9033065,17.347313 C23.8675511,16.2862308 23.1336061,14.2970413 22.2113099,13.4133988 C20.6261923,11.8947141 16,11 16,11 Z"/>
      <path fill="#4E2BA9" d="M18.0016588,17.6013886 L19.888069,17 C19.888069,17 20.1045475,18.3532438 19.9353929,19.1458353 C19.7662383,19.9384267 18.6759967,23.441743 17.9079906,24.6373341 C16.9558193,26.1196237 10.2451327,31.0338025 8.88445058,31.702012 C7.52376845,32.3702215 5.07571389,31.7786215 3.5178258,31.2552288 C1.95993771,30.731836 1.42735188,30.1233669 1.13149289,29.0973051 C0.835633891,28.0712432 1.13149289,18.5461457 1.13149289,18.5461457 C1.13149289,18.5461457 2.60982962,18.1329913 3.4058571,18.3225357 C4.20188457,18.5120801 2.85492415,19.3633596 3.90140607,19.7445554 C4.94788799,20.1257513 6.83008737,19.5698601 6.83008737,19.5698601 C6.83008737,19.5698601 9.27590365,22.6331422 10.1926474,22.6331422 C11.1093911,22.6331422 14.3814139,22.810458 15.7228514,21.2775067 C17.0642889,19.7445554 18.0016588,17.6013886 18.0016588,17.6013886 Z M2.46868753,21.2460762 C2.46868753,21.2460762 1.86352058,22.8159768 2.02849826,23.8684573 C2.19347594,24.9209379 2.68235701,24.2622449 2.91171674,24.0723957 C3.14107648,23.8825464 2.99366903,23.069551 2.99366903,23.069551 L4.27285501,23.650332 C4.27285501,23.650332 3.84505476,25.0694691 4.3641385,25.5819828 C4.88322224,26.0944965 5.82468902,26.1768241 6.24498411,25.5974998 C6.66527919,25.0181755 7,21.9487768 7,21.9487768 C7,21.9487768 5.79910832,21.443543 4.81855107,21.1741514 C4.54550877,21.0991376 4.28955074,21.0424105 4.08136253,21.0199706 C3.12552296,20.9169441 2.46868753,21.2460762 2.46868753,21.2460762 Z"/>
    </g>
    <g transform="translate(21)">
      <use fill="#D8C6FB" xlink:href="#b"/>
      <path stroke="#4E2BA9" d="M8.5,26.5 L16.5,26.5 L16.5,23.8225581 L16.8199444,23.6990567 C21.4098991,21.9272944 24.5,17.5030521 24.5,12.5 C24.5,5.872583 19.127417,0.5 12.5,0.5 C5.872583,0.5 0.5,5.872583 0.5,12.5 C0.5,17.5030521 3.59010092,21.9272944 8.18005557,23.6990567 L8.5,23.8225581 L8.5,26.5 Z"/>
      <polyline stroke="#7543EE" points="5 14 9.565 10 12.826 14 16.087 10 20 14"/>
      <use fill="#D8D8D8" xlink:href="#c"/>
      <rect width="7.264" height="1" x="8.868" y="28.868" stroke="#5639AF" stroke-width="1.736"/>
      <g>
        <use fill="#D8D8D8" xlink:href="#d"/>
        <rect width="1" height="1" x="12.868" y="28.868" stroke="#5639AF" stroke-width="1.736"/>
      </g>
    </g>
  </g>
</svg>
