<svg xmlns="http://www.w3.org/2000/svg" xmlns:xlink="http://www.w3.org/1999/xlink" width="68" height="67" viewBox="0 0 68 67">
  <defs>
    <filter id="a" width="139.3%" height="140%" x="-19.6%" y="-12.7%" filterUnits="objectBoundingBox">
      <feOffset dy="4" in="SourceAlpha" result="shadowOffsetOuter1"/>
      <feGaussianBlur in="shadowOffsetOuter1" result="shadowBlurOuter1" stdDeviation="3"/>
      <feColorMatrix in="shadowBlurOuter1" result="shadowMatrixOuter1" values="0 0 0 0 0 0 0 0 0 0 0 0 0 0 0 0 0 0 0.1 0"/>
      <feMerge>
        <feMergeNode in="shadowMatrixOuter1"/>
        <feMergeNode in="SourceGraphic"/>
      </feMerge>
    </filter>
    <rect id="b" width="38" height="1" x="15" y="18"/>
    <rect id="c" width="13" height="1" x="28" y="40"/>
    <rect id="d" width="6" height="1" x="31" y="20"/>
    <rect id="e" width="1" height="2" x="34" y="24"/>
  </defs>
  <g fill="none" fill-rule="evenodd" filter="url(#a)" transform="translate(6 2)">
    <path fill="#AB87F2" d="M12,11 L56,11 L56,53.4210439 C56,54.2930773 55.2910436,55 54.4210439,55 L12,55 L12,11 Z"/>
    <path fill="#4E2BA9" d="M0,4 L12,11.0615385 L12,55 L1.33005953,45.9305506 C0.595487935,45.3061647 0,44.0213981 0,43.046875 L0,4 Z"/>
    <path fill="#7543EE" d="M0,4 L42.7709742,4 C43.7347564,4 45.1831195,4.40660612 46.0173814,4.91512775 L56,11 L11.8309859,11 L0,4 Z"/>
    <rect width="38" height="28" x="15" y="14" fill="#E2DBF9" rx=".79"/>
    <use fill="#D8D8D8" xlink:href="#b"/>
    <rect width="37.21" height="1" x="15.395" y="18.395" stroke="#6756BB" stroke-width=".79"/>
    <rect width="6" height="8" x="31" y="17" fill="#7D56ED"/>
    <use fill="#D8D8D8" xlink:href="#c"/>
    <rect width="12.21" height="1" x="28.395" y="40.395" stroke="#6756BB" stroke-width=".79"/>
    <rect width="5.21" height="1.21" x="31.395" y="41.395" stroke="#6756BB" stroke-width=".79"/>
    <path fill="#7543EE" d="M35.1256614,35.8523677 L32.9867725,35.8523677 C33.4911842,36.4930394 34.1944399,36.8133705 35.0965608,36.8133705 C35.9986818,36.8133705 36.643737,36.4558996 37.031746,35.7409471 L40,35.7409471 C39.6507919,36.7623078 39.0348369,37.5608142 38.1521164,38.1364903 C37.2693959,38.7121663 36.2654377,39 35.1402116,39 C34.0149856,39 33.0086023,38.7168088 32.1210317,38.1504178 C31.2334612,37.5840269 30.600531,36.8180178 30.2222222,35.8523677 L29,35.8523677 L29,34.3899721 L29.9021164,34.3899721 C29.8924162,34.3064063 29.8875661,34.1764169 29.8875661,34 C29.8875661,33.8235831 29.8924162,33.6935937 29.9021164,33.6100279 L29,33.6100279 L29,32.1337047 L30.2367725,32.1337047 C30.6150813,31.1773397 31.2455864,30.4159731 32.1283069,29.8495822 C33.0110273,29.2831912 34.0149856,29 35.1402116,29 C36.2654377,29 37.2693959,29.2878337 38.1521164,29.8635097 C39.0348369,30.4391858 39.6507919,31.2376922 40,32.2590529 L37.031746,32.2590529 C36.643737,31.5441004 35.9986818,31.1866295 35.0965608,31.1866295 C34.1944399,31.1866295 33.4960342,31.5023181 33.0013228,32.1337047 L35.1256614,32.1337047 L35.1256614,33.6100279 L32.4338624,33.6100279 C32.4241622,33.6935937 32.4193122,33.8235831 32.4193122,34 C32.4193122,34.1764169 32.4241622,34.3064063 32.4338624,34.3899721 L35.1256614,34.3899721 L35.1256614,35.8523677 Z"/>
    <use fill="#E5E0F9" xlink:href="#d"/>
    <rect width="5.21" height="1" x="31.395" y="20.395" stroke="#E5E0F9" stroke-width=".79"/>
    <use fill="#D8D8D8" xlink:href="#e"/>
    <rect width="1" height="1.21" x="34.395" y="24.395" stroke="#6756BB" stroke-width=".79"/>
    <rect width="13" height="5" x="15" y="46" fill="#E2DBF9" rx=".79"/>
    <rect width="10" height="3" x="16" y="46" fill="#7543EE" rx=".79"/>
    <path fill="#4E2BA9" d="M27,0 L31.7745712,0 C31.7745712,0 33.6309211,1.49865611 34.4268256,3.99910407 C35.22273,6.49955204 34.9576187,9 34.9576187,9 L30.1830475,9 C30.1830475,9 30.6778415,7.22113317 29.8055663,4.48075545 C28.9332911,1.74037772 27,0 27,0 Z"/>
  </g>
</svg>
