<?xml version="1.0" encoding="UTF-8" standalone="no"?>
<svg width="92px" height="92px" viewBox="0 0 92 92" version="1.1" xmlns="http://www.w3.org/2000/svg" xmlns:xlink="http://www.w3.org/1999/xlink">
    <!-- Generator: Sketch 44.1 (41455) - http://www.bohemiancoding.com/sketch -->
    <title>icon_easy_affordable_1a</title>
    <desc>Created with Sketch.</desc>
    <defs>
        <rect id="path-1" x="0" y="0" width="80" height="80" rx="40"></rect>
        <filter x="-13.8%" y="-8.8%" width="127.5%" height="127.5%" filterUnits="objectBoundingBox" id="filter-2">
            <feOffset dx="0" dy="4" in="SourceAlpha" result="shadowOffsetOuter1"></feOffset>
            <feGaussianBlur stdDeviation="3" in="shadowOffsetOuter1" result="shadowBlurOuter1"></feGaussianBlur>
            <feColorMatrix values="0 0 0 0 0   0 0 0 0 0   0 0 0 0 0  0 0 0 0.1 0" type="matrix" in="shadowBlurOuter1"></feColorMatrix>
        </filter>
        <filter x="-15.8%" y="-9.1%" width="131.6%" height="118.2%" filterUnits="objectBoundingBox" id="filter-3">
            <feGaussianBlur stdDeviation="1" in="SourceGraphic"></feGaussianBlur>
        </filter>
        <path d="M2,15.7300544 C2,14.2074938 3.04858644,13.606492 4.36794658,14.403299 L18.6320534,23.0178833 C19.9398342,23.807697 21,25.6840723 21,27.2024765 L21,45.3028975 C21,46.8241708 19.9514136,47.3877081 18.6702271,46.5694557 L4.32977295,37.4106712 C3.04307488,36.5888987 2,34.6888554 2,33.1658808 L2,15.7300544 Z" id="path-4"></path>
        <filter x="-15.8%" y="-9.1%" width="131.6%" height="118.2%" filterUnits="objectBoundingBox" id="filter-5">
            <feGaussianBlur stdDeviation="1" in="SourceGraphic"></feGaussianBlur>
        </filter>
        <path d="M23,15.7300544 C23,14.2074938 24.0485864,13.606492 25.3679466,14.403299 L39.6320534,23.0178833 C40.9398342,23.807697 42,25.6840723 42,27.2024765 L42,45.3028975 C42,46.8241708 40.9514136,47.3877081 39.6702271,46.5694557 L25.3297729,37.4106712 C24.0430749,36.5888987 23,34.6888554 23,33.1658808 L23,15.7300544 Z" id="path-6"></path>
        <filter x="-7.9%" y="-13.6%" width="115.8%" height="127.3%" filterUnits="objectBoundingBox" id="filter-7">
            <feGaussianBlur stdDeviation="1" in="SourceGraphic"></feGaussianBlur>
        </filter>
        <path d="M20.7568259,0.575635753 C22.0784425,-0.172350223 24.2219545,-0.162791399 25.5471417,0.598507136 L40.9591486,9.4524546 C42.2831503,10.2130721 42.2985193,11.4561955 40.9790877,12.2375694 L25.5272026,21.3882516 C24.2142129,22.1658105 22.07595,22.1696255 20.7769307,21.41175 L5.01185643,12.214071 C3.70134338,11.4494899 3.71283707,10.2219013 5.03196118,9.47532599 L20.7568259,0.575635753 Z" id="path-8"></path>
        <filter x="-11.5%" y="-10.7%" width="123.1%" height="121.4%" filterUnits="objectBoundingBox" id="filter-9">
            <feGaussianBlur stdDeviation="1" in="SourceGraphic"></feGaussianBlur>
        </filter>
        <path d="M11,24.1655114 C6.3199399,22.3589676 3,17.8171906 3,12.5 C3,5.59644063 8.59644063,0 15.5,0 C22.4035594,0 28,5.59644063 28,12.5 C28,17.8171906 24.6800601,22.3589676 20,24.1655114 L20,27 L11,27 L11,24.1655114 Z" id="path-10"></path>
        <rect id="path-11" x="11" y="28" width="9" height="1"></rect>
        <rect id="path-12" x="15" y="28" width="1" height="2"></rect>
    </defs>
    <g id="0000_general" stroke="none" stroke-width="1" fill="none" fill-rule="evenodd">
        <g id="0003_start_printing_1b" transform="translate(-637.000000, -1099.000000)">
            <g id="easy_and_affordable" transform="translate(113.000000, 1101.000000)">
                <g id="icon_easy_affordable_1a" transform="translate(530.000000, 0.000000)">
                    <g id="icon">
                        <use fill="black" fill-opacity="1" filter="url(#filter-2)" xlink:href="#path-1"></use>
                        <use fill="#6610F2" fill-rule="evenodd" xlink:href="#path-1"></use>
                    </g>
                    <g id="content" transform="translate(12.000000, 14.000000)">
                        <g id="cube">
                            <path d="M0,16.7300544 C0,15.2074938 1.04858644,14.606492 2.36794658,15.403299 L16.6320534,24.0178833 C17.9398342,24.807697 19,26.6840723 19,28.2024765 L19,46.3028975 C19,47.8241708 17.9514136,48.3877081 16.6702271,47.5694557 L2.32977295,38.4106712 C1.04307488,37.5888987 0,35.6888554 0,34.1658808 L0,16.7300544 Z" id="shadow" fill="#540CCA" filter="url(#filter-3)"></path>
                            <g id="Rectangle-6-Copy">
                                <use fill="#6610F2" fill-rule="evenodd" xlink:href="#path-4"></use>
                                <path stroke="#FFFFFF" stroke-width="2" d="M3,15.7300544 L3,33.1658808 C3,34.3471004 3.86862087,35.9296002 4.86802983,36.5678904 L19.2084839,45.7266749 C19.828188,46.1224598 20,46.0293873 20,45.3028975 L20,27.2024765 C20,26.0336951 19.1225361,24.4823221 18.1150835,23.8738868 L3.85097662,15.2593025 C3.20207195,14.8674067 3,14.9814245 3,15.7300544 Z"></path>
                            </g>
                            <path d="M21,17.7300544 C21,16.2074938 22.0485864,15.606492 23.3679466,16.403299 L37.6320534,25.0178833 C38.9398342,25.807697 40,27.6840723 40,29.2024765 L40,47.3028975 C40,48.8241708 38.9514136,49.3877081 37.6702271,48.5694557 L23.3297729,39.4106712 C22.0430749,38.5888987 21,36.6888554 21,35.1658808 L21,17.7300544 Z" id="shadow" fill="#540CCA" filter="url(#filter-5)" transform="translate(30.500000, 32.500000) scale(-1, 1) translate(-30.500000, -32.500000) "></path>
                            <g id="Rectangle-6-Copy-2" transform="translate(32.500000, 30.500000) scale(-1, 1) translate(-32.500000, -30.500000) ">
                                <use fill="#6610F2" fill-rule="evenodd" xlink:href="#path-6"></use>
                                <path stroke="#FFFFFF" stroke-width="2" d="M24,15.7300544 L24,33.1658808 C24,34.3471004 24.8686209,35.9296002 25.8680298,36.5678904 L40.2084839,45.7266749 C40.828188,46.1224598 41,46.0293873 41,45.3028975 L41,27.2024765 C41,26.0336951 40.1225361,24.4823221 39.1150835,23.8738868 L24.8509766,15.2593025 C24.2020719,14.8674067 24,14.9814245 24,15.7300544 Z"></path>
                            </g>
                            <path d="M19.7568259,1.57563575 C21.0784425,0.827649777 23.2219545,0.837208601 24.5471417,1.59850714 L39.9591486,10.4524546 C41.2831503,11.2130721 41.2985193,12.4561955 39.9790877,13.2375694 L24.5272026,22.3882516 C23.2142129,23.1658105 21.07595,23.1696255 19.7769307,22.41175 L4.01185643,13.214071 C2.70134338,12.4494899 2.71283707,11.2219013 4.03196118,10.475326 L19.7568259,1.57563575 Z" id="shadow" fill="#540CCA" filter="url(#filter-7)" transform="translate(22.000000, 12.000000) scale(-1, 1) translate(-22.000000, -12.000000) "></path>
                            <g id="Rectangle-6-Copy-3" transform="translate(23.000000, 11.000000) scale(-1, 1) translate(-23.000000, -11.000000) ">
                                <use fill="#6610F2" fill-rule="evenodd" xlink:href="#path-8"></use>
                                <path stroke="#FFFFFF" stroke-width="2" d="M21.2493748,1.44592052 L5.52451008,10.3456108 C4.87535517,10.7130084 4.87326426,10.9754654 5.5157841,11.3503251 L21.2808583,20.5480041 C22.2702063,21.1252108 24.0205993,21.1182704 25.0176471,20.5278138 L40.4695322,11.3771316 C41.1267519,10.9879228 41.1242332,10.700563 40.4610139,10.3195543 L25.049007,1.46560681 C24.0302102,0.880324581 22.2633279,0.872060695 21.2493748,1.44592052 Z"></path>
                            </g>
                            <rect id="Rectangle" fill="#FFFFFF" x="22" y="5" width="2" height="13" rx="1"></rect>
                            <rect id="Rectangle-Copy" fill="#FFFFFF" transform="translate(12.000000, 30.500000) rotate(60.000000) translate(-12.000000, -30.500000) " x="11" y="24" width="2" height="13" rx="1"></rect>
                            <rect id="Rectangle-Copy-2" fill="#FFFFFF" transform="translate(33.000000, 30.500000) rotate(-60.000000) translate(-33.000000, -30.500000) " x="32" y="24" width="2" height="13" rx="1"></rect>
                        </g>
                        <g id="light_bulb" transform="translate(25.000000, 22.000000)">
                            <path d="M8.32,25.1321319 C3.4527375,23.2533263 0,18.5298782 0,13 C0,5.82029825 5.82029825,0 13,0 C20.1797017,0 26,5.82029825 26,13 C26,18.5298782 22.5472625,23.2533263 17.68,25.1321319 L17.68,28.08 L8.32,28.08 L8.32,25.1321319 Z" id="shadow" fill="#540CCA" filter="url(#filter-9)"></path>
                            <g id="Combined-Shape">
                                <use fill="#6610F2" fill-rule="evenodd" xlink:href="#path-10"></use>
                                <path stroke="#FFFFFF" stroke-width="2" d="M12,26 L19,26 L19,23.4796047 L19.6398889,23.232602 C24.0385959,21.5346629 27,17.2946818 27,12.5 C27,6.14872538 21.8512746,1 15.5,1 C9.14872538,1 4,6.14872538 4,12.5 C4,17.2946818 6.96140413,21.5346629 11.3601111,23.232602 L12,23.4796047 L12,26 Z"></path>
                            </g>
                            <polyline id="Path-45" stroke="#FFFFFF" stroke-width="2" points="8 14 12.5652174 10 15.826087 14 19.0869565 10 23 14"></polyline>
                            <g id="Rectangle-27">
                                <use fill="#D8D8D8" fill-rule="evenodd" xlink:href="#path-11"></use>
                                <rect stroke="#FFFFFF" stroke-width="1.73599998" x="11.868" y="28.868" width="7.26400002" height="1"></rect>
                            </g>
                            <g id="Rectangle-27-Copy">
                                <use fill="#D8D8D8" fill-rule="evenodd" xlink:href="#path-12"></use>
                                <rect stroke="#FFFFFF" stroke-width="1.73599998" x="15.868" y="28.868" width="1" height="1"></rect>
                            </g>
                        </g>
                    </g>
                </g>
            </g>
        </g>
    </g>
</svg>